<?xml version="1.0" encoding="UTF-8" standalone="no"?>
<!-- Created with Inkscape (http://www.inkscape.org/) -->

<svg
   xmlns:dc="http://purl.org/dc/elements/1.1/"
   xmlns:cc="http://creativecommons.org/ns#"
   xmlns:rdf="http://www.w3.org/1999/02/22-rdf-syntax-ns#"
   xmlns:svg="http://www.w3.org/2000/svg"
   xmlns="http://www.w3.org/2000/svg"
   xmlns:sodipodi="http://sodipodi.sourceforge.net/DTD/sodipodi-0.dtd"
   xmlns:inkscape="http://www.inkscape.org/namespaces/inkscape"
   width="210mm"
   height="297mm"
   viewBox="0 0 744.09448819 1052.3622047"
   id="svg3347"
   version="1.1"
   inkscape:version="0.91 r13725"
   sodipodi:docname="trabant_and_box.svg"
   inkscape:export-filename="C:\RnD\pd\TrabantSim\Icons\trabant_and_box.png"
   inkscape:export-xdpi="144.14046"
   inkscape:export-ydpi="144.14046">
  <defs
     id="defs3349">
    <inkscape:perspective
       sodipodi:type="inkscape:persp3d"
       inkscape:vp_x="0 : 526.1811 : 1"
       inkscape:vp_y="6.123032e-014 : 1000.0001 : 0"
       inkscape:vp_z="744.09449 : 526.1811 : 1"
       inkscape:persp3d-origin="372.04724 : 350.7874 : 1"
       id="perspective7680" />
  </defs>
  <sodipodi:namedview
     id="base"
     pagecolor="#ffffff"
     bordercolor="#666666"
     borderopacity="1.0"
     inkscape:pageopacity="0.0"
     inkscape:pageshadow="2"
     inkscape:zoom="1.979899"
     inkscape:cx="365.9304"
     inkscape:cy="519.68142"
     inkscape:document-units="px"
     inkscape:current-layer="layer1"
     showgrid="false"
     inkscape:window-width="1920"
     inkscape:window-height="1018"
     inkscape:window-x="-8"
     inkscape:window-y="-8"
     inkscape:window-maximized="1" />
  <metadata
     id="metadata3352">
    <rdf:RDF>
      <cc:Work
         rdf:about="">
        <dc:format>image/svg+xml</dc:format>
        <dc:type
           rdf:resource="http://purl.org/dc/dcmitype/StillImage" />
        <dc:title />
      </cc:Work>
    </rdf:RDF>
  </metadata>
  <g
     inkscape:label="Layer 1"
     inkscape:groupmode="layer"
     id="layer1"
     style="display:inline">
    <path
       style="fill:#000000"
       d="m 97.562849,329.41911 c -22.243947,0.1475 -40.245882,1.56928 -40.245882,4.18382 0,2.33382 28.996117,3.92908 65.645853,3.60799 52.88466,-0.46297 60.72047,-1.30204 40.30885,-4.30977 -16.97896,-2.50196 -43.46488,-3.6296 -65.708821,-3.48204 z M 209.105,333.55793 c -4.49823,-0.0405 -4.37279,1.38676 -4.37279,4.22883 0,2.5337 5.2923,4.60673 11.75977,4.60673 16.41681,0 77.15087,13.92876 82.45317,18.91278 2.57705,2.42235 -42.87992,4.51316 -110.56143,5.08361 -106.520088,0.89781 -109.713747,1.15085 -43.53895,3.45505 l 71.40425,2.49228 -63.75635,2.30336 c -60.064251,2.17009 -64.262631,2.92624 -72.55594,13.17238 -6.084287,7.51698 -8.799584,8.73813 -8.799584,3.9499 0,-3.81017 -3.10954,-8.12391 -6.910089,-9.58236 -7.673009,-2.94439 -9.562274,4.09736 -2.303363,8.58362 6.082721,3.75937 5.949679,74.10182 -0.161973,85.52139 -2.622793,4.90082 -2.937433,8.9165 -0.701788,8.9165 2.23569,0 6.311076,-4.66431 9.060509,-10.36513 l 5.002628,-10.36514 0.242913,11.51682 c 0.279766,13.35688 -3.723525,20.57567 -13.442289,24.27528 -5.359051,2.04 -5.026399,2.71424 1.466597,2.99617 6.123214,0.26599 7.609667,2.75445 5.542491,9.26744 -1.554494,4.89778 -3.723709,47.53234 -4.82269,94.73484 -1.098981,47.2025 -3.231618,87.81973 -4.741703,90.26304 -1.743185,2.82056 44.437721,4.08294 126.496051,3.45505 71.0833,-0.54397 130.66569,0.4357 132.4074,2.17737 1.74166,1.74171 -14.28689,3.34996 -35.61216,3.572 -21.32532,0.22196 -49.13543,2.08238 -61.80393,4.13887 -14.5105,2.35561 15.96682,3.37429 82.35421,2.76224 90.56778,-0.83501 106.13372,-2.0024 110.76841,-8.34071 4.5713,-6.25165 6.60918,-3.95473 13.37927,15.10684 8.72454,24.56449 32.78054,48.28089 59.0147,58.1689 33.71216,12.70669 81.97305,-4.43337 103.3724,-36.70985 8.65968,-13.06136 13.52982,-27.31816 14.89092,-43.59294 1.28855,-15.40973 4.14753,-24.18531 7.8728,-24.18531 3.21573,0 7.03521,3.10954 8.49365,6.91009 1.4584,3.80054 5.8282,6.91008 9.70831,6.91008 3.88006,0 7.05405,2.9654 7.05405,6.59518 0,3.62982 4.14605,7.92002 9.21345,9.52837 5.0674,1.60834 9.21346,4.6293 9.21346,6.72116 0,2.09187 3.40893,5.11315 7.57589,6.71214 9.2411,3.54617 24.67119,-9.42891 24.67119,-20.74828 0,-4.50395 4.14605,-9.50358 9.21345,-11.11193 13.58086,-4.31042 11.32812,-19.40007 -4.08488,-27.3704 -10.47965,-5.41926 -13.03505,-9.5907 -12.06566,-19.69555 0.6765,-7.05156 2.76339,-16.51507 4.63373,-21.02722 1.87028,-4.51215 2.17036,-14.35903 0.66581,-21.88195 -1.50461,-7.52292 -0.97497,-13.67622 1.17867,-13.67622 2.15365,0 5.22633,-6.56214 6.82911,-14.57596 1.98222,-9.91114 0.69322,-17.02157 -4.03089,-22.24187 -3.81976,-4.22077 -6.94607,-11.1005 -6.94607,-15.28673 0,-4.18618 -4.66431,-8.66253 -10.36513,-9.95126 -5.70083,-1.28874 -25.91284,-5.70239 -44.91558,-9.80731 -19.00275,-4.10492 -46.59197,-10.18151 -61.30903,-13.49623 -24.83334,-5.59331 -103.7479,-15.79582 -141.62984,-18.30994 -9.00444,-0.59759 -21.0216,-3.94203 -26.70464,-7.44097 -13.19269,-8.1224 -83.61387,-97.63933 -83.61387,-106.28759 0,-7.95719 -33.07243,-19.75829 -74.08551,-26.43473 -18.48362,-3.00874 -27.60489,-4.51215 -32.10313,-4.55273 z m 72.56492,38.72529 c 8.95184,0.33763 17.48658,2.03502 17.49119,4.77768 0.017,7.93043 37.92335,67.72017 56.56733,89.22833 16.20646,18.69598 18.41548,19.8243 28.86404,14.71093 l 11.31886,-5.53346 -10.878,9.47438 c -5.98151,5.21043 -14.27366,9.42656 -18.4269,9.37542 -4.27431,-0.0528 -18.54461,-16.52004 -32.8859,-37.9515 -36.33177,-54.29377 -53.20875,-72.09817 -65.76281,-69.35283 -8.25327,1.80482 -8.90388,1.28523 -3.33808,-2.69024 5.08426,-3.63162 5.31869,-4.9596 0.88177,-5.01166 -3.31666,-0.0388 -5.02833,-1.68412 -3.80594,-3.66198 1.65635,-2.68 11.02265,-3.70265 19.97444,-3.36507 z m 26.0568,4.0489 c 2.31769,0.31625 12.69945,11.82141 24.10433,26.81257 12.1653,15.99059 28.96801,37.22553 37.33968,47.18297 8.37166,9.95744 15.2238,19.80431 15.2238,21.88195 0,9.68707 -14.68661,1.93901 -29.94372,-15.79965 -18.60164,-21.62715 -50.77925,-76.29263 -47.08397,-79.98787 0.0807,-0.0807 0.20537,-0.11107 0.35988,-0.09 z m -98.84666,3.41906 c 8.34969,0.004 16.5187,0.24702 22.49377,0.7198 11.95012,0.94549 0.99873,1.70551 -24.33826,1.6915 -25.33699,-0.0119 -35.11583,-0.78512 -21.72901,-1.71849 6.69344,-0.46616 15.22381,-0.69691 23.5735,-0.69281 z m 66.18571,9.4384 c 0.50264,-0.0313 1.41072,0.35988 2.73524,1.17868 2.96636,1.83329 4.14458,5.34919 2.61828,7.81881 -1.5263,2.46962 -0.77798,6.99412 1.65552,10.05022 2.4335,3.05615 5.41442,12.69098 6.6312,21.40511 1.51087,10.82074 -0.789,21.04435 -7.27002,32.24708 -5.21923,9.02177 -11.6592,17.96784 -14.30605,19.88447 -2.64684,1.91668 -42.64639,3.19081 -88.88641,2.83424 -46.24001,-0.35651 -84.237121,-0.88522 -84.441661,-1.17867 -0.20477,-0.29327 -1.28145,-18.15161 -2.39333,-39.68805 -1.11188,-21.53645 -0.42949,-41.53881 1.52059,-44.44768 4.33728,-6.47038 159.291741,-10.51762 175.721401,-4.58876 8.32339,3.00363 10.08334,2.55862 7.35096,-1.8625 -1.47015,-2.37873 -1.77346,-3.60075 -0.93572,-3.65295 z m 34.13658,53.58019 10.14917,17.18521 c 5.57828,9.45452 9.15739,18.1769 7.95379,19.38068 -4.41016,4.41011 -34.19076,6.3618 -36.63785,2.40231 -1.38773,-2.24541 2.21653,-11.9264 8.00778,-21.52207 l 10.52711,-17.44613 z m 118.95608,37.82551 c 3.80055,0 6.92745,2.59128 6.95509,5.7584 0.0339,4.15946 13.14507,6.04946 47.21895,6.81114 25.94462,0.5799 56.50256,2.94494 67.9042,5.25452 19.03859,3.85524 17.72282,4.16794 -16.12354,3.86896 -78.77806,-0.69603 -112.86479,-5.22706 -112.86479,-14.99885 0,-3.68575 3.10954,-6.69417 6.91009,-6.69417 z m -22.46678,4.60672 c 6.66465,0 10.94996,2.70539 10.94996,6.91009 0,4.8706 -4.92809,6.91009 -16.6904,6.91009 -14.31107,0 -15.8681,-0.98409 -10.94995,-6.91009 3.15417,-3.80055 10.66641,-6.91009 16.69039,-6.91009 z m -180.49908,4.60673 c 81.56674,0 126.95488,1.64699 126.95488,4.60672 0,6.29399 -247.17671,6.29399 -251.06658,0 -1.871761,-3.0286 40.64689,-4.60672 124.1117,-4.60672 z m 7.56691,13.82018 123.99469,0 0,92.13452 0,92.13452 -39.48107,0 c -28.44497,0 -41.36536,-1.88424 -46.20224,-6.72112 -6.94644,-6.94648 -22.18475,-4.71189 -17.67112,2.59129 1.40182,2.26821 -0.80402,4.12983 -4.90363,4.12983 -4.09962,0 -6.17265,-2.07302 -4.60673,-4.60672 1.56592,-2.5337 -0.50711,-4.60673 -4.60673,-4.60673 -4.09961,0 -6.17264,2.07303 -4.60672,4.60673 1.56592,2.5337 -0.21094,4.60672 -3.9499,4.60672 -3.73896,0 -7.84733,-2.59128 -9.13247,-5.7584 -1.75931,-4.33595 -3.56418,-4.05143 -7.29701,1.15168 -3.46729,4.83301 -5.99616,5.36578 -8.41266,1.77253 -6.44062,-9.57692 -22.84411,-11.67036 -30.60953,-3.90494 -4.06751,4.06756 -7.39596,5.41544 -7.39596,2.99617 0,-2.41931 -5.20477,-5.39618 -11.57081,-6.61314 -1.02582,-0.19611 -1.71121,-0.21297 -2.57327,-0.32394 -0.048,-0.002 -0.096,0.002 -0.14396,0 -2.05801,0.0623 -4.38399,0.50047 -6.66718,0.63881 -1.0431,0.85487 -1.35074,2.26766 -0.98072,4.38183 1.3956,7.97428 -1.67211,8.43666 -43.70991,6.59517 l -31.095404,-1.35862 0.072,-86.16918 c 0.03879,-47.3911 1.593559,-88.23322 3.455045,-90.76692 5.304737,-7.2204 15.200358,-7.78477 23.042618,-1.31361 5.694701,4.69914 7.575941,4.73272 9.114501,0.16192 1.48631,-4.4161 30.84484,-5.7584 125.93817,-5.7584 z m 130.90478,2.30336 78.31435,0.3959 c 71.41116,0.36449 191.05448,8.3151 210.71276,14.00012 7.25532,2.09813 7.79868,8.26345 5.74938,65.14201 -1.24497,34.55381 -4.09727,64.65052 -6.33425,66.8875 -4.72448,4.72447 -24.05361,2.66504 -23.64545,-2.51933 0.1517,-1.92681 -2.79928,-9.44655 -6.5592,-16.71735 -21.82487,-42.2047 -59.79162,-64.88025 -108.7619,-64.95304 -23.27728,-0.0347 -35.65109,2.6731 -54.03008,11.83173 -13.11079,6.5334 -29.90968,19.54818 -37.33065,28.91799 -7.42102,9.36976 -17.053,29.27906 -21.40511,44.24977 -6.05379,20.82424 -6.69952,29.17435 -2.73524,35.52219 2.84999,4.56351 5.18256,10.39733 5.18256,12.9654 0,2.79997 -13.37093,4.33875 -33.39876,3.85095 l -33.39877,-0.80977 32.24709,-2.80725 c 27.59816,-2.40066 29.59057,-3.11728 13.82018,-4.94864 l -18.42691,-2.13241 0,-94.43788 0,-94.43789 z m -258.93938,10.30216 c -12.955171,0.089 -24.374281,3.24327 -24.374281,8.40368 0,7.39573 3.966805,8.3578 28.306171,6.91907 9.2334,-0.5458 18.16418,1.24258 19.84854,3.96792 1.68435,2.72534 4.10464,4.95762 5.37149,4.95762 1.26685,0 1.01707,-2.07303 -0.54885,-4.60673 -1.56592,-2.5337 -0.64978,-4.60673 2.03346,-4.60673 9.535,0 4.68029,-7.26499 -7.79187,-11.66077 -6.7471,-2.37799 -15.07159,-3.42745 -22.84466,-3.37406 z m 565.28667,10.42811 c 2.5337,0 4.4003,6.73733 4.14785,14.97186 -0.25254,8.23452 -2.11927,20.15443 -4.14785,26.48867 -2.81484,8.78941 -3.79727,5.24379 -4.14785,-14.97186 -0.2582,-14.8941 1.55758,-26.48867 4.14785,-26.48867 z m 11.51682,36.85381 c 3.80055,0 6.91009,3.10954 6.91009,6.91009 0,7.19372 -5.45137,9.13361 -10.75201,3.83293 -5.30068,-5.30064 -3.35181,-10.74302 3.84192,-10.74302 z m -166.41798,10.53609 c 22.09874,0.2635 45.12965,7.99175 66.05073,22.38583 20.20206,13.89937 41.75039,47.24769 33.73169,52.20356 -2.40697,1.48756 -7.52186,-3.37632 -11.36387,-10.80604 -3.84201,-7.42964 -15.59745,-20.88432 -26.12875,-29.89872 -45.48801,-38.936 -110.14655,-29.982 -146.56949,20.29839 -7.63662,10.54199 -15.09256,27.99498 -16.78935,39.31012 -3.2096,21.40312 -11.21992,28.12176 -11.21992,9.4114 0,-19.16467 13.73348,-50.71522 28.98999,-66.60856 18.71119,-19.49226 41.48265,-31.27378 68.19213,-35.27928 4.96292,-0.74422 10.00714,-1.07751 15.10684,-1.0167 z m 158.47317,13.85615 c 2.20469,0.5482 2.93983,5.9178 1.91649,14.68394 -1.04033,8.91116 -3.86324,16.20453 -6.28025,16.20453 -5.91675,0 -2.80495,-28.8177 3.32905,-30.82545 0.37406,-0.12253 0.71975,-0.14128 1.03471,-0.063 z m -160.90249,3.24811 c 34.89904,0 70.64926,21.54377 86.68201,52.24857 10.77941,20.64399 5.19583,17.6012 -9.96923,-5.43451 -8.46998,-12.86585 -21.84552,-25.23421 -34.55045,-31.95916 -16.71187,-8.84593 -25.8728,-10.62905 -47.26391,-9.16844 -20.81406,1.42112 -31.24217,5.11365 -48.37062,17.11325 -13.3262,9.33603 -18.45501,11.51064 -13.1634,5.57847 13.24987,-14.85384 45.00647,-28.37818 66.6356,-28.37818 z m -0.21596,12.30862 c 39.76531,0.036 66.36012,17.44434 81.31954,53.24726 9.34945,22.3763 8.86989,43.03028 -1.52957,65.92479 -10.32026,22.71982 -31.91484,41.61035 -54.83086,47.97472 -19.32084,5.36583 -24.50756,5.39227 -46.50813,0.19795 -35.63307,-8.41294 -60.24847,-41.8322 -60.37331,-81.94933 -0.0978,-31.43653 12.93946,-57.14524 37.09672,-73.13177 14.68334,-9.71697 24.06807,-12.28204 44.82561,-12.26362 z m -0.009,24.93211 c -7.77574,0.21772 -15.57419,2.63906 -25.409,7.30595 -42.07609,19.96643 -44.65548,78.5854 -4.53472,103.04855 19.77584,12.05801 44.28386,11.48927 63.52242,-1.47563 21.16855,-14.26546 27.9884,-28.8645 25.79587,-55.19074 -2.05566,-24.6827 -11.81777,-38.36864 -34.10958,-47.80377 -9.7318,-4.11901 -17.48925,-6.10212 -25.26499,-5.88436 z m 3.2301,5.20054 c 2.65693,0.0265 5.30068,0.27718 7.89979,0.76481 8.77029,1.64529 21.82976,9.24832 29.29593,17.04129 11.16053,11.64912 13.47826,17.9479 13.47826,36.70082 0,19.16799 -2.18847,24.83523 -14.25206,36.89882 -19.73323,19.73323 -44.64249,22.75962 -66.29364,8.06177 -28.2004,-19.14381 -34.85094,-44.91434 -18.50789,-71.71917 10.45556,-17.14854 29.78101,-27.93404 48.37961,-27.74834 z m -2.06944,8.23272 c -17.98982,0 -23.75329,2.30737 -34.96431,14.00915 -17.71922,18.49485 -18.56036,44.44123 -2.01545,62.24479 6.27667,6.75416 15.55489,14.01717 20.62229,16.14151 10.40001,4.35985 32.44743,1.12275 44.76264,-6.56818 12.67881,-7.91808 23.09462,-33.66733 19.75852,-48.85649 -1.60281,-7.29756 -8.2459,-18.60201 -14.76492,-25.12103 -9.35318,-9.35318 -16.39843,-11.84975 -33.39877,-11.84975 z m 0.80977,4.74171 c 6.14455,0.081 12.45014,1.81486 18.84082,5.21854 14.8965,7.93394 21.26806,18.21873 21.43206,34.59546 0.0919,9.16655 -4.29932,19.90442 -11.77774,28.79203 -9.38602,11.15469 -15.58755,14.18006 -29.08894,14.18006 -12.78275,0 -20.30636,-3.29316 -29.52986,-12.92044 -17.06617,-17.81319 -16.66133,-38.79034 1.08871,-56.54033 9.00025,-9.0003 18.79411,-13.46039 29.03495,-13.32532 z m -7.95379,4.56171 10.75206,4.55274 c 12.78495,5.417 11.03601,15.48146 -3.05016,17.55416 -8.98008,1.32139 -12.28587,-3.11041 -10.54512,-14.13509 0.30003,-1.90028 -1.53317,-3.45505 -4.06687,-3.45505 -2.5337,0 -4.60672,2.8652 -4.60672,6.37023 0,3.50507 -4.28615,7.49169 -9.52837,8.86256 -7.64855,2.0001 -9.24095,5.52153 -8.06177,17.81508 1.15947,12.08722 3.30413,15.00153 10.1582,13.82018 6.02398,-1.03826 7.8997,0.55843 6.11828,5.20058 -1.41288,3.68188 -0.24217,9.01628 2.60032,11.85873 5.70971,5.70971 17.09219,6.66819 28.27917,2.37532 8.59256,-3.29727 9.91354,-24.81137 1.52957,-24.9141 -4.16992,-0.0511 -4.00348,-1.18195 0.59385,-4.09386 3.4907,-2.21164 5.05893,-6.10414 3.48204,-8.65562 -1.57693,-2.55148 0.30193,-5.86133 4.18383,-7.35096 9.43868,-3.62194 14.23801,9.83366 7.40495,20.77523 -3.20071,5.12512 -3.53405,8.61062 -0.81876,8.61062 5.96728,0 11.12852,-20.94255 7.49492,-30.41158 -1.56145,-4.06907 -5.79909,-6.26625 -9.42039,-4.87663 -4.28375,1.64381 -7.0898,-1.00708 -8.02579,-7.58493 -0.98838,-6.94547 -5.04478,-10.45124 -12.95642,-11.21089 l -11.51682,-1.10672 z m -226.27843,22.73673 c 0.0647,0.0345 0.25618,0.20694 0.28792,0.20694 0.003,0 -0.002,-0.10651 0,-0.10794 -0.0953,-0.0228 -0.19246,-0.0705 -0.28792,-0.099 z m 210.15489,4.81366 c 6.14229,0 9.21345,3.07117 9.21345,9.21345 0,6.14229 -3.07116,9.21346 -9.21345,9.21346 -6.14228,0 -9.21345,-3.07117 -9.21345,-9.21346 0,-6.14228 3.07117,-9.21345 9.21345,-9.21345 z m 172.75223,9.21345 c 16.28791,0 18.4065,2.50441 13.32533,15.74566 -1.53791,4.0078 -4.12919,7.21934 -5.75841,7.13503 -4.13818,-0.21412 -23.69046,-16.85569 -23.69046,-20.16341 0,-1.49414 7.2556,-2.71728 16.12354,-2.71728 z m -157.48346,5.62348 c 0.64282,0.15382 1.22511,0.97276 1.77253,2.4383 1.183,3.16712 4.86935,5.7584 8.18771,5.7584 6.65147,0 12.6018,11.31371 8.24176,15.6737 -1.51455,1.51455 -6.62125,2.75321 -11.34586,2.75321 -10.15281,0 -15.2472,-10.55074 -10.56309,-21.88195 1.41358,-3.41962 2.63561,-4.99811 3.70695,-4.74166 z m -399.22862,13.57722 c -19.972783,-0.0612 -31.280683,1.13358 -32.759903,3.52705 -2.085879,3.37507 15.275862,4.91261 55.586603,4.91261 32.24307,0 57.25345,-1.37437 55.57766,-3.05016 -1.67579,-1.67583 -26.68782,-3.88881 -55.58664,-4.91261 -8.54064,-0.30257 -16.16008,-0.45648 -22.81772,-0.47689 z"
       id="path7567"
       inkscape:connector-curvature="0"
       inkscape:export-xdpi="203.27716"
       inkscape:export-ydpi="203.27716" />
    <path
       style="fill:none;fill-rule:evenodd;stroke:#000000;stroke-width:4.60672617px;stroke-linecap:butt;stroke-linejoin:miter;stroke-opacity:1"
       d="m 64.433438,332.97918 0.581691,57.00529"
       id="path7626"
       inkscape:connector-curvature="0"
       inkscape:export-xdpi="203.27716"
       inkscape:export-ydpi="203.27716" />
    <path
       style="fill:none;fill-rule:evenodd;stroke:#000000;stroke-width:4.60672617px;stroke-linecap:butt;stroke-linejoin:miter;stroke-opacity:1"
       d="m 209.85521,335.88759 -57.58703,-1.74507"
       id="path7628"
       inkscape:connector-curvature="0"
       inkscape:export-xdpi="203.27716"
       inkscape:export-ydpi="203.27716" />
    <path
       style="fill:none;fill-rule:evenodd;stroke:#000000;stroke-width:4.60672617px;stroke-linecap:butt;stroke-linejoin:miter;stroke-opacity:1"
       d="m 227.30581,711.65742 -51.18847,0.58169"
       id="path7630"
       inkscape:connector-curvature="0"
       inkscape:export-xdpi="203.27716"
       inkscape:export-ydpi="203.27716" />
    <path
       style="fill:none;fill-rule:evenodd;stroke:#000000;stroke-width:4.60672617px;stroke-linecap:butt;stroke-linejoin:miter;stroke-opacity:1"
       d="M 76.067172,711.07573 51.05463,710.49404"
       id="path7632"
       inkscape:connector-curvature="0"
       inkscape:export-xdpi="203.27716"
       inkscape:export-ydpi="203.27716" />
    <path
       style="fill:none;fill-rule:evenodd;stroke:#000000;stroke-width:4.60672617px;stroke-linecap:butt;stroke-linejoin:miter;stroke-opacity:1"
       d="m 59.779954,709.91235 1.163382,-13.9605"
       id="path7634"
       inkscape:connector-curvature="0"
       inkscape:export-xdpi="203.27716"
       inkscape:export-ydpi="203.27716" />
    <path
       style="fill:#e9ddaf"
       d="m 363.3622,492.80536 c -6.60139,-4.8244 -17.06129,-17.88884 -33.15618,-41.41235 -30.4845,-44.55469 -44.44615,-60.44361 -56.08495,-63.82711 -2.66417,-0.77449 -3.81036,-0.82055 -6.78368,-0.27272 -1.96777,0.36255 -4.30803,0.65922 -5.20054,0.65922 -1.60798,0 -1.61277,-0.009 -0.52503,-1.21291 0.60372,-0.66714 2.34575,-2.12909 3.87113,-3.24884 3.36342,-2.46898 3.51792,-3.50826 0.5921,-3.98335 -6.32752,-1.02757 -6.54252,-4.06774 -0.43626,-6.16896 3.23176,-1.11206 22.6246,-1.10884 27.04844,0.005 5.10637,1.28514 6.16859,2.03244 6.8831,4.8424 2.91186,11.45127 35.08957,62.20753 54.12571,85.37637 7.40822,9.01656 15.49634,17.22257 18.32445,18.59164 3.9974,1.9351 6.19213,1.58951 14.56306,-2.2935 4.13366,-1.91746 7.62119,-3.38083 7.75008,-3.25194 0.25245,0.25245 -10.6167,9.71222 -13.55418,11.79718 -3.26198,2.31525 -10.04732,5.42322 -12.58401,5.76403 -2.14821,0.28884 -2.83908,0.0935 -4.83324,-1.36368 z"
       id="path7638"
       inkscape:connector-curvature="0"
       inkscape:export-xdpi="203.27716"
       inkscape:export-ydpi="203.27716" />
    <path
       style="fill:#e9ddaf"
       d="m 503.55695,501.91253 c -41.99865,-1.15265 -68.47203,-4.241 -77.88873,-9.08644 -4.06848,-2.09348 -5.3878,-5.35223 -3.58127,-8.84575 0.89407,-1.72895 4.01176,-3.53967 6.09451,-3.53967 3.40179,0 7.01909,2.90763 7.01909,5.64205 0,4.15218 9.40265,5.56354 45.83973,6.88056 25.2714,0.91342 42.41874,1.98388 56.24633,3.51124 8.53751,0.94305 21.10074,3.25152 23.93254,4.39758 l 1.6617,0.67254 -1.45421,0.44225 c -1.83712,0.55847 -36.43414,0.51415 -57.86969,-0.0742 z"
       id="path7640"
       inkscape:connector-curvature="0"
       inkscape:export-xdpi="203.27716"
       inkscape:export-ydpi="203.27716" />
    <path
       style="fill:#e9ddaf"
       d="m 389.14443,498.67414 c -3.46591,-0.6015 -3.47264,-2.8874 -0.0184,-6.70923 2.31838,-2.56613 5.79788,-4.52243 10.55327,-5.93337 8.36987,-2.48331 16.90876,0.41184 16.90876,5.73279 0,3.0444 -0.88956,4.32295 -3.97612,5.71492 -2.35919,1.06392 -3.96588,1.23939 -12.3111,1.34438 -5.27885,0.0663 -10.29852,-8.7e-4 -11.15491,-0.14972 z"
       id="path7642"
       inkscape:connector-curvature="0"
       inkscape:export-xdpi="203.27716"
       inkscape:export-ydpi="203.27716" />
    <path
       style="fill:#e9ddaf"
       d="m 345.32991,705.00121 c -4.47899,-0.20362 -7.92648,-0.42474 -7.66108,-0.49076 0.26535,-0.0663 10.86662,-1.04356 23.55829,-2.17197 21.85302,-1.94294 29.59066,-2.81508 30.17691,-3.40133 0.14189,-0.14189 -0.2202,-0.40908 -0.8041,-0.59409 -1.00671,-0.31878 -24.65258,-3.2599 -26.21057,-3.2599 -0.59095,0 -0.73629,-18.66185 -0.73629,-94.52413 l 0,-94.52417 42.02688,0.009 c 40.81878,0.009 69.15263,0.51309 97.86884,1.74788 75.21448,3.23429 142.06642,9.04042 150.5738,13.07744 5.21126,2.47289 6.07618,9.92652 5.09605,43.91781 -1.0197,35.36523 -2.45962,59.66 -4.47368,75.48088 -1.76148,13.83704 -2.2737,14.38976 -13.33634,14.38976 -6.14399,0 -7.31156,-0.16308 -9.74548,-1.36175 -1.99591,-0.98289 -2.8599,-1.79207 -3.10549,-2.90846 -2.37712,-10.80554 -12.70323,-29.33909 -23.47869,-42.14007 -14.85632,-17.64902 -36.95847,-30.99553 -60.23041,-36.37057 -18.0667,-4.17277 -42.99623,-4.69946 -59.52862,-1.25768 -25.86663,5.38499 -56.69724,26.10047 -68.59996,46.0932 -7.18617,12.07045 -13.1967,26.00027 -16.94146,39.26299 -3.21467,11.38548 -4.29614,17.14863 -4.31236,22.98088 -0.0138,5.00977 0.0415,5.2062 2.92919,10.76122 3.77433,7.25569 5.15497,11.6728 4.00716,12.82061 -2.10021,2.10021 -7.04387,2.57332 -28.27908,2.70618 -11.35747,0.0709 -24.31453,-0.0369 -28.79351,-0.24139 z"
       id="path7644"
       inkscape:connector-curvature="0"
       inkscape:export-xdpi="203.27716"
       inkscape:export-ydpi="203.27716" />
    <path
       style="fill:#e9ddaf"
       d="m 98.112939,688.93345 c -10.237714,-0.44777 -20.511773,-0.97095 -22.83126,-1.16273 l -4.217227,-0.34873 0.0046,-55.93777 c 0.0092,-65.48835 0.917521,-105.31474 2.693645,-117.80827 0.740208,-5.20666 5.784159,-8.77351 12.42434,-8.786 4.407852,-0.009 7.868792,1.37686 12.820932,5.13116 4.017991,3.04606 5.885831,3.1633 7.173271,0.45008 1.40164,-2.95375 4.61313,-3.93332 16.36125,-4.99061 14.98771,-1.3489 46.69557,-1.75203 138.58691,-1.76212 l 95.54212,-0.009 0,92.26425 0,92.2642 -31.55654,-0.30036 c -40.59194,-0.38604 -46.89205,-1.16918 -54.16049,-6.73241 -4.83868,-3.70353 -9.65506,-4.88045 -14.4841,-3.53939 -3.05915,0.84957 -4.24068,2.78186 -3.2969,5.39185 0.39618,1.0953 0.55529,2.42097 0.3538,2.94596 -0.73478,1.91478 -5.37361,2.72299 -8.21034,1.43048 -1.79782,-0.81912 -2.29079,-2.17539 -1.52391,-4.19249 0.31925,-0.8393 0.42106,-1.94095 0.22619,-2.44815 -0.77181,-2.01126 -5.94751,-2.67518 -8.25502,-1.05891 -1.18982,0.83341 -1.29601,1.24608 -0.95631,3.71602 0.33952,2.46994 0.23356,2.88266 -0.95631,3.71601 -3.57956,2.50722 -10.08412,-0.34596 -12.78178,-5.60647 -0.63453,-1.23737 -1.55011,-2.18133 -2.11577,-2.18133 -0.54848,0 -2.70669,1.83228 -4.79607,4.07179 -2.3867,2.55821 -4.25574,4.07179 -5.02801,4.07179 -0.76582,0 -2.22588,-1.16661 -3.87292,-3.09447 -3.00243,-3.51443 -7.82222,-6.33296 -12.50468,-7.31263 -7.61745,-1.59374 -12.01619,-0.2506 -19.79395,6.0432 -2.95798,2.3937 -4.57167,2.59169 -5.30939,0.65134 -1.25533,-3.30178 -8.41368,-6.1761 -15.38135,-6.1761 -5.58497,0 -6.08724,0.44087 -6.29307,5.52605 l -0.16492,4.07179 -2.32676,1.15933 c -2.07888,1.03577 -3.62789,1.16983 -14.54215,1.25851 -6.71849,0.0544 -20.59174,-0.26719 -30.829411,-0.71478 z M 134.44775,539.33647 c -0.009,-0.55985 -0.39479,-1.67233 -0.85192,-2.47215 -1.02453,-1.79225 -1.10617,-4.18719 -0.17459,-5.11886 0.38374,-0.38374 1.57904,-0.69806 2.65582,-0.69806 1.07678,0 2.46414,-0.27087 3.08296,-0.60214 4.23169,-2.26476 -4.96881,-9.07977 -16.18665,-11.98974 -11.8081,-3.06311 -30.319771,-2.37666 -37.948511,1.40721 -3.947503,1.958 -5.108721,3.79475 -4.333731,6.85481 1.175129,4.63976 5.508493,5.61786 22.075202,4.98259 17.80569,-0.68272 22.83328,0.32524 27.27385,5.46888 2.7767,3.21627 4.4453,4.03682 4.40748,2.16746 z"
       id="path7646"
       inkscape:connector-curvature="0"
       inkscape:export-xdpi="203.27716"
       inkscape:export-ydpi="203.27716" />
    <path
       style="fill:#e9ddaf"
       d="m 403.96653,686.21245 c -1.42721,-2.65518 -1.42274,-14.02689 0.009,-20.79532 2.83212,-13.39613 10.45391,-31.21987 18.52609,-43.32396 15.1155,-22.66536 41.58874,-39.8227 70.95533,-45.98618 9.03609,-1.8965 23.12881,-2.529 32.36331,-1.4525 17.75557,2.06985 36.18362,9.10229 53.05774,20.24776 16.90807,11.1679 36.14976,35.93564 37.63041,48.43756 0.38697,3.26649 -0.81415,5.7901 -2.7556,5.7901 -1.91373,0 -6.21208,-4.50597 -9.66418,-10.13093 -1.78349,-2.9061 -4.70614,-7.24555 -6.49484,-9.6433 -4.09294,-5.4867 -16.46089,-18.21606 -22.20589,-22.85485 -12.99369,-10.49168 -27.42937,-17.3908 -43.62653,-20.85004 -8.98275,-1.91847 -26.57289,-1.94712 -35.88838,-0.0585 -20.87915,4.23302 -39.36318,14.55896 -54.60569,30.50495 -7.99916,8.3684 -12.54655,14.79566 -17.60935,24.88909 -5.2038,10.37444 -7.60105,17.32 -9.93809,28.79351 -1.87383,9.19945 -3.53087,14.05217 -5.66387,16.58716 -1.87351,2.22652 -2.82826,2.19045 -4.0887,-0.15432 z"
       id="path7648"
       inkscape:connector-curvature="0"
       inkscape:export-xdpi="203.27716"
       inkscape:export-ydpi="203.27716" />
    <path
       style="fill:#e9ddaf"
       d="m 172.56887,710.50477 c -1.10524,-0.47652 -25.06916,-2.0229 -41.59063,-2.68378 -18.75937,-0.75044 -44.016943,-0.42981 -50.747601,0.64415 -3.020768,0.48201 -6.733421,0.57925 -11.276344,0.2953 l -6.772809,-0.42336 0.317864,-4.63621 c 0.174595,-2.54992 0.406313,-4.71093 0.515078,-4.80224 0.108719,-0.0912 2.128861,0.0475 4.489577,0.30865 10.653101,1.17757 49.051175,1.69307 126.878225,1.70334 92.56617,0.0138 123.89933,0.62057 123.89933,2.40559 0,1.76147 -9.11473,2.69664 -33.15618,3.40179 -20.6619,0.60601 -37.07751,1.42122 -47.11662,2.33985 -3.35928,0.30726 -18.27954,0.68267 -33.15618,0.83395 -14.87664,0.1511 -28.0955,0.4077 -29.3752,0.56939 -1.27971,0.1617 -2.58852,0.18151 -2.90841,0.0415 z"
       id="path7650"
       inkscape:connector-curvature="0"
       inkscape:export-xdpi="203.27716"
       inkscape:export-ydpi="203.27716" />
    <path
       style="fill:#e9ddaf"
       d="m 71.739982,394.21211 c -0.371302,-0.3713 -0.67553,-1.26049 -0.67553,-1.9755 0,-1.75033 -0.942122,-4.14905 -2.596489,-6.61093 l -1.368152,-2.0359 -0.229875,-24.05849 -0.229876,-24.05844 3.991728,0.39342 c 8.196241,0.80765 41.767342,1.31816 68.780722,1.046 15.35653,-0.15479 36.26531,0.009 46.46391,0.36209 18.44579,0.63992 18.55032,0.65065 19.95081,2.05119 1.67611,1.67611 5.02276,2.5026 12.11301,2.99138 19.41072,1.3382 67.72358,12.12094 78.80704,17.58861 3.93907,1.94321 2.50541,2.58272 -7.94407,3.54359 -17.3563,1.59591 -58.95347,2.73395 -118.85211,3.25152 -20.31543,0.17552 -44.00464,0.50305 -52.64272,0.72782 -14.65109,0.38097 -15.23688,0.43579 -8.72527,0.8152 3.8391,0.22343 27.26656,1.09009 52.06098,1.92548 53.63611,1.80703 59.41207,2.20745 41.00894,2.84267 -87.75275,3.02897 -102.153101,3.91839 -110.623071,6.83246 -4.819559,1.6582 -7.008168,3.28792 -11.392297,8.48311 -4.306645,5.10333 -6.812381,6.97043 -7.897864,5.88495 z"
       id="path7652"
       inkscape:connector-curvature="0"
       inkscape:export-xdpi="203.27716"
       inkscape:export-ydpi="203.27716" />
    <path
       style="fill:#8fa93b;fill-opacity:1"
       d="m 152.79151,498.42017 c -27.93192,-0.74444 -46.93135,-2.03995 -50.64944,-3.45357 -9.816101,-3.73204 41.28083,-5.54677 141.68346,-5.03192 70.65958,0.36255 98.11931,1.2287 106.01243,3.3448 8.73951,2.34303 -7.65597,4.02941 -50.46135,5.19035 -24.03656,0.65186 -121.50134,0.61883 -146.5851,-0.0498 z"
       id="path7654"
       inkscape:connector-curvature="0"
       inkscape:export-xdpi="203.27716"
       inkscape:export-ydpi="203.27716" />
    <path
       style="fill:#8fa93b;fill-opacity:1"
       d="m 341.25811,705.0025 -5.23522,-0.33122 3.19928,-0.45008 c 1.75963,-0.24738 11.83735,-1.23064 22.39495,-2.18465 23.99322,-2.16806 30.19774,-2.93587 28.16567,-3.48545 -0.82521,-0.22342 -6.45301,-0.98423 -12.50625,-1.69117 -6.05324,-0.70695 -11.59486,-1.40091 -12.3147,-1.54215 l -1.30877,-0.2566 -1.4e-4,-94.65845 -9e-5,-94.65851 42.60867,0.13867 c 23.43478,0.0765 53.60257,0.4123 67.03952,0.74716 59.41249,1.47968 135.0518,6.50493 166.36252,11.05269 17.12633,2.48749 18.06435,3.11378 19.43619,12.97705 1.89313,13.61095 -0.98381,86.84416 -4.36432,111.09466 -1.64972,11.83454 -2.43654,12.73852 -11.40128,13.09858 -6.7583,0.27134 -11.16394,-0.51876 -13.31335,-2.38803 -0.96382,-0.8382 -1.9667,-2.84659 -2.82714,-5.66167 -0.73339,-2.39946 -2.74792,-7.21372 -4.47673,-10.69838 -13.1598,-26.52549 -30.69706,-44.30763 -55.18259,-55.95298 -16.84026,-8.00925 -33.40756,-11.30555 -56.71092,-11.28334 -17.64021,0.0184 -27.51966,1.60945 -39.87011,6.42748 -21.18988,8.26636 -42.76484,24.43519 -52.70744,39.50038 -3.43307,5.20182 -10.59225,19.60378 -13.59731,27.35336 -2.91398,7.51472 -7.08537,22.23588 -8.13561,28.71114 -1.49286,9.20461 -1.25593,11.58334 1.77391,17.80845 3.24816,6.67368 5.07878,11.98044 4.62547,13.40866 -0.86606,2.72871 -8.40667,3.45818 -34.60577,3.34776 -11.9973,-0.0507 -24.1691,-0.24093 -27.04844,-0.42336 z"
       id="path7656"
       inkscape:connector-curvature="0"
       inkscape:export-xdpi="203.27716"
       inkscape:export-ydpi="203.27716" />
    <path
       style="fill:#8fa93b;fill-opacity:1"
       d="m 106.54739,689.46779 c -20.435528,-0.84322 -32.563425,-1.46402 -33.94595,-1.73757 l -1.662291,-0.32892 0.302201,-73.08714 c 0.358864,-86.74801 0.91743,-100.8469 4.16379,-105.1031 2.136691,-2.8013 6.247181,-4.53362 10.78301,-4.54435 4.374639,-0.009 7.538589,1.20125 12.598429,4.82453 4.059351,2.90685 5.940101,3.04841 7.411301,0.55783 2.96632,-5.02156 10.45695,-5.5523 89.63828,-6.35074 33.27249,-0.33537 83.13763,-0.53604 110.81139,-0.44547 l 50.31591,0.16446 0,92.48827 0,92.48823 -26.75762,-0.18703 c -44.29063,-0.31003 -51.03023,-1.08521 -59.48085,-6.84325 -4.69439,-3.19858 -6.97348,-3.91286 -11.55468,-3.62111 -2.86,0.18196 -4.03407,0.53627 -5.0089,1.5111 -1.15251,1.15255 -1.21175,1.50372 -0.62462,3.70334 0.35656,1.33655 0.52816,2.744 0.38097,3.12769 -0.76711,1.99905 -7.08233,2.72327 -9.42693,1.08106 -1.18558,-0.83045 -1.29541,-1.25026 -0.96174,-3.67639 0.46666,-3.39309 -0.32109,-4.20839 -4.06636,-4.20839 -3.66465,0 -4.55845,0.86547 -4.19788,4.0647 0.41921,3.72072 -0.97589,4.97909 -5.13811,4.63391 -3.7678,-0.31234 -6.5674,-2.08436 -8.75075,-5.53853 -0.86266,-1.36479 -1.97025,-2.48141 -2.46133,-2.48141 -0.49108,0 -2.52859,1.7014 -4.52786,3.78097 -4.45535,4.63418 -5.42755,4.75699 -8.97708,1.1339 -5.32151,-5.43179 -10.72073,-7.85438 -17.57614,-7.88626 -4.64602,-0.023 -8.14455,1.3834 -13.51982,5.42958 -4.72198,3.55451 -5.81087,3.84408 -6.79096,1.80602 -1.69172,-3.51792 -8.07374,-6.09202 -15.37978,-6.20323 -2.50698,-0.0368 -4.54352,0.20868 -4.93288,0.59814 -0.36486,0.36485 -0.75486,2.41659 -0.86699,4.55978 -0.22988,4.39136 -0.73325,5.03718 -4.716,6.04974 -2.17285,0.55239 -23.90471,0.70096 -35.0799,0.24001 z M 133.2255,536.62845 c -1.56228,-4.08252 -1.04499,-5.06629 3.08056,-5.8586 2.26992,-0.4358 3.15211,-0.88233 3.30132,-1.6704 0.42382,-2.23841 -5.20629,-6.38663 -12.18746,-8.97966 -11.29938,-4.19701 -33.729951,-4.20184 -42.07517,-0.009 -3.535155,1.77616 -4.391592,2.74293 -4.391592,4.95739 0,2.63108 0.806085,4.00808 3.071074,5.24618 1.661739,0.90836 3.77793,1.02795 18.742188,1.05909 20.4511,0.0415 21.93534,0.3303 27.00062,5.23296 4.21774,4.08244 5.01419,4.08755 3.45846,0.023 z"
       id="path7658"
       inkscape:connector-curvature="0"
       inkscape:export-xdpi="203.27716"
       inkscape:export-ydpi="203.27716" />
    <path
       style="fill:#8fa93b;fill-opacity:1"
       d="m 403.94829,686.52805 c -1.46421,-2.23583 -1.4414,-16.03629 0.0369,-22.2743 3.2464,-13.70036 12.29747,-34.03758 19.71854,-44.30662 17.43411,-24.12473 47.18471,-41.53613 77.39608,-45.29568 9.00942,-1.12114 26.42271,-0.41967 34.5511,1.39151 19.17913,4.27393 40.56798,14.91225 53.5085,26.61393 13.74546,12.42955 26.52627,31.3209 27.35216,40.42946 0.3819,4.21257 -0.37591,6.04356 -2.5014,6.04356 -2.54854,0 -5.42539,-2.8968 -10.43617,-10.50849 -6.76176,-10.27157 -10.45119,-14.67993 -20.46036,-24.44725 -9.96407,-9.72333 -17.94237,-15.42885 -28.68512,-20.51353 -13.44174,-6.36211 -22.37994,-8.4884 -37.50082,-8.92092 -16.52944,-0.47279 -26.53622,1.29647 -40.49124,7.15913 -12.76445,5.3625 -22.23948,11.95505 -33.69797,23.44644 -9.09501,9.12109 -14.42062,16.57947 -19.80362,27.73424 -4.27237,8.85334 -6.47725,15.39738 -8.96976,26.62213 -2.23588,10.06906 -3.23517,13.1493 -5.26203,16.21992 -1.71712,2.60132 -3.31482,2.80513 -4.75465,0.60647 z"
       id="path7660"
       inkscape:connector-curvature="0"
       inkscape:export-xdpi="203.27716"
       inkscape:export-ydpi="203.27716" />
    <path
       style="fill:#8fa93b;fill-opacity:1"
       d="m 495.98685,501.90558 c -26.19154,-0.89643 -47.48388,-2.88234 -59.57778,-5.55677 -11.20899,-2.47879 -15.16902,-4.94804 -15.16902,-9.45863 0,-3.81206 3.07227,-6.44951 7.51283,-6.44951 2.84166,0 6.11732,2.56549 6.64511,5.20441 0.18934,0.94769 0.98943,2.14553 1.77755,2.66195 3.23531,2.11983 15.10219,3.24055 49.21347,4.64777 23.19197,0.95672 41.08251,2.15982 52.30123,3.51705 8.17712,0.9893 20.41346,3.29561 23.02722,4.34023 1.6037,0.64093 1.65082,0.73606 0.58169,1.17416 -1.44946,0.59399 -48.26397,0.53705 -66.3123,-0.0806 z"
       id="path7662"
       inkscape:connector-curvature="0"
       inkscape:export-xdpi="203.27716"
       inkscape:export-ydpi="203.27716" />
    <path
       style="fill:#8fa93b;fill-opacity:1"
       d="m 387.64761,498.45482 c -1.75631,-0.70594 -1.67818,-2.58557 0.22159,-5.32676 5.41373,-7.812 21.31689,-10.71179 27.40076,-4.99632 1.00846,0.94737 1.31674,1.88213 1.31674,3.99233 0,5.45533 -4.01633,6.95215 -18.4972,6.89369 -5.02313,-0.0184 -9.7219,-0.27364 -10.44175,-0.56294 z"
       id="path7664"
       inkscape:connector-curvature="0"
       inkscape:export-xdpi="203.27716"
       inkscape:export-ydpi="203.27716" />
    <path
       style="fill:#8fa93b;fill-opacity:1"
       d="m 362.15745,492.15433 c -6.28846,-4.90528 -15.73345,-16.91691 -33.68107,-42.83393 -28.93867,-41.78845 -41.92954,-56.75367 -52.8942,-60.93308 -2.55217,-0.9728 -3.79014,-1.07355 -8.92544,-0.7262 -3.99085,0.26995 -5.9623,0.20361 -5.9623,-0.2004 0,-0.33214 1.58384,-1.82242 3.51968,-3.312 1.93584,-1.48959 3.42174,-3.00216 3.30205,-3.3613 -0.11977,-0.35886 -1.33355,-0.92462 -2.69747,-1.25667 -2.63679,-0.64204 -4.25334,-2.19884 -3.72172,-3.58422 0.17736,-0.46242 1.40284,-1.39731 2.72308,-2.07749 4.75852,-2.45161 27.60147,-2.06183 32.85535,0.56059 1.756,0.87652 2.32382,1.73757 4.12284,6.2517 6.52676,16.37719 36.5049,62.74752 54.48656,84.28001 6.59978,7.90307 15.17018,16.38253 17.42448,17.23961 3.74928,1.42546 8.49545,0.19993 18.42847,-4.7582 2.47943,-1.23764 4.50805,-2.03741 4.50805,-1.77722 0,0.54483 -9.16927,8.62945 -13.59219,11.9843 -4.13214,3.13433 -10.99764,6.30624 -14.23828,6.57822 -2.43434,0.20454 -3.00626,-0.005 -5.65789,-2.07372 z"
       id="path7666"
       inkscape:connector-curvature="0"
       inkscape:export-xdpi="203.27716"
       inkscape:export-ydpi="203.27716" />
    <path
       style="fill:#8fa93b;fill-opacity:1"
       d="m 71.410878,394.44093 c -0.167224,-0.27042 -0.478132,-1.58126 -0.691055,-2.91293 -0.212831,-1.33162 -1.136434,-3.60264 -2.052205,-5.04667 l -1.665009,-2.62546 -0.392032,-24.5176 c -0.377752,-23.63577 -0.353336,-24.50285 0.676129,-24.10773 2.191236,0.84086 34.431134,1.51243 74.161754,1.54491 46.06224,0.0369 62.33978,0.53498 63.90639,1.95274 1.9141,1.73227 5.08039,2.58885 12.00393,3.24756 27.43453,2.61003 81.72687,15.58387 81.72687,19.52962 0,1.53768 -12.61317,2.73119 -39.55473,3.74283 -14.46042,0.54299 -53.71429,1.22525 -121.16381,2.10591 -15.93149,0.20777 -28.88744,0.45699 -28.79098,0.55359 0.0963,0.0963 15.48717,0.71833 34.20158,1.38193 65.18794,2.31152 72.08803,2.62445 71.44857,3.24042 -0.10687,0.10319 -11.58094,0.61011 -25.49781,1.12694 -82.24513,3.05426 -92.726671,3.82312 -101.197111,7.42323 -1.838773,0.78153 -4.482389,3.04159 -8.756325,7.48598 -5.619377,5.84345 -7.546923,7.19723 -8.364294,5.87473 z"
       id="path7668"
       inkscape:connector-curvature="0"
       inkscape:export-xdpi="203.27716"
       inkscape:export-ydpi="203.27716" />
    <path
       style="fill:#8fa93b;fill-opacity:1"
       d="m 162.09848,709.90733 c -24.34089,-1.99633 -67.179481,-2.76257 -79.109425,-1.41505 -5.613849,0.63411 -16.283165,0.74274 -19.281084,0.19624 l -1.830483,-0.33352 0.266269,-3.58205 c 0.47394,-6.37862 0.483015,-6.39525 3.278699,-5.99704 7.177418,1.02232 47.117644,1.63838 139.430174,2.15065 56.46727,0.31326 104.98208,0.79977 107.8107,1.08097 8.53571,0.8486 7.90386,2.34432 -1.49276,3.53363 -2.64744,0.33491 -15.28392,0.99446 -28.08104,1.46526 -24.63995,0.90652 -44.25299,1.92935 -45.60332,2.37823 -0.44731,0.14879 -10.52512,0.39111 -22.39495,0.53875 -11.86983,0.14742 -26.55497,0.37591 -32.63359,0.50776 -6.34369,0.13728 -15.017,-0.0857 -20.35906,-0.52383 z"
       id="path7672"
       inkscape:connector-curvature="0"
       inkscape:export-xdpi="203.27716"
       inkscape:export-ydpi="203.27716" />
    <path
       style="opacity:1;fill:#ffffff;fill-opacity:1;stroke:#000000;stroke-width:1.42857146;stroke-miterlimit:4;stroke-dasharray:none;stroke-opacity:1"
       d="m 511.57324,774.66776 c -5.19064,-0.39402 -16.87693,-2.67595 -23.92857,-4.67241 -29.27803,-8.28922 -50.91034,-34.07484 -56.04986,-66.81119 -1.49214,-9.50426 -1.42767,-21.20438 0.17142,-31.10989 4.39341,-27.21476 19.80861,-48.56623 44.38184,-61.47293 10.11318,-5.31178 19.01702,-7.12187 35.06803,-7.12907 8.65442,-0.004 13.4444,0.34366 20.17857,1.46409 9.1535,1.52294 15.43672,3.52181 23.39285,7.44192 15.43377,7.60446 26.83506,19.4498 35.68354,37.07334 12.12179,24.14298 13.18615,46.05184 3.38172,69.60948 -4.61927,11.09899 -10.23465,19.59294 -18.70188,28.28886 -9.70207,9.96414 -20.68871,17.30273 -32.33951,21.60139 -4.13573,1.5259 -14.63126,4.24864 -19.27387,5 -3.71941,0.60195 -9.17151,0.92841 -11.96428,0.71641 z m 7.24622,-27.64737 c 14.38083,-1.56054 27.00397,-7.81478 38.67991,-19.16431 7.7431,-7.52664 11.89564,-15.25899 13.76845,-25.63793 0.87868,-4.86959 0.88105,-18.06079 0.004,-24.46429 -3.17545,-23.19489 -13.54283,-35.68909 -37.19897,-44.83016 -15.19706,-5.87236 -25.57629,-5.85549 -40.53572,0.0659 -9.69363,3.83702 -16.75067,8.29028 -22.85714,14.42371 -7.24129,7.27327 -12.0512,15.65883 -14.63763,25.51916 -4.21381,16.06438 -1.78364,32.49283 6.8679,46.42857 11.66698,18.79292 34.32362,30.00169 55.90881,27.65938 z"
       id="path4176"
       inkscape:connector-curvature="0"
       inkscape:export-xdpi="203.27716"
       inkscape:export-ydpi="203.27716" />
    <path
       style="opacity:1;fill:#ffffff;fill-opacity:1;stroke:#000000;stroke-width:1.42857146;stroke-miterlimit:4;stroke-dasharray:none;stroke-opacity:1"
       d="m 508.56762,742.03507 c -12.03412,-1.69276 -23.0023,-7.49666 -33.73786,-17.85263 -11.0284,-10.63847 -16.29564,-21.82566 -16.2908,-34.60036 0.003,-8.85648 2.81105,-18.33887 8.02229,-27.09356 8.54689,-14.35848 22.74248,-24.58121 38.88779,-28.00444 4.44768,-0.94303 13.596,-1.11942 17.55277,-0.33845 9.46809,1.86878 21.66253,8.90608 29.88997,17.24923 7.93217,8.04374 11.46745,14.41533 12.84653,23.15317 0.65071,4.12291 0.65482,22.95977 0.006,27.13441 -1.23657,7.95527 -4.21823,13.51175 -11.23853,20.94352 -9.41853,9.97059 -19.2963,16.03179 -30.25389,18.5644 -4.2324,0.97823 -11.82714,1.38726 -15.68419,0.84471 l -10e-6,0 z m 12.92346,-7.1017 c 12.36069,-2.53028 19.78261,-5.8881 25.26272,-11.42935 3.69852,-3.73978 6.12362,-7.31684 9.10411,-13.42873 6.00347,-12.31093 7.89289,-24.65955 5.14394,-33.61914 -2.01017,-6.55171 -7.89353,-16.16953 -13.40142,-21.90797 -4.23939,-4.41684 -7.64622,-7.04216 -11.56291,-8.91044 -5.79936,-2.76633 -10.98886,-3.59565 -22.50936,-3.59716 -11.51561,-10e-4 -15.99887,0.70555 -21.65257,3.41482 -4.044,1.93789 -7.36386,4.56144 -12.44521,9.83495 -10.26251,10.65061 -14.8707,21.90939 -14.36701,35.10163 0.56171,14.71192 7.64795,26.23121 23.53002,38.25007 5.79434,4.38492 9.25925,6.11106 13.95755,6.95335 3.16936,0.56819 14.94031,0.15675 18.94014,-0.66203 z"
       id="path4178"
       inkscape:connector-curvature="0"
       inkscape:export-xdpi="203.27716"
       inkscape:export-ydpi="203.27716" />
    <path
       style="opacity:1;fill:#ffffff;fill-opacity:1;stroke:#000000;stroke-width:1.42857146;stroke-miterlimit:4;stroke-dasharray:none;stroke-opacity:1"
       d="m 508.03925,729.14724 c -8.98928,-0.94789 -16.24664,-4.77593 -23.51325,-12.40253 -5.69311,-5.97515 -10.03294,-13.20561 -11.72014,-19.52656 -1.14215,-4.27901 -1.31857,-10.49316 -0.4209,-14.82619 1.67346,-8.07782 5.89806,-15.3971 12.96724,-22.46628 16.00328,-16.00329 34.1004,-17.70051 53.20436,-4.98972 8.72641,5.80611 13.8008,13.49037 15.53975,23.53219 0.82519,4.76519 0.55458,13.37447 -0.53884,17.14286 -3.5169,12.12075 -13.39816,25.28337 -22.87709,30.4741 -5.21995,2.85848 -13.69819,4.00513 -22.64113,3.06213 z m 8.45897,-5.14028 c 4.82694,-0.84175 8.67942,-2.19484 10.2252,-3.59137 2.95562,-2.67022 4.73873,-7.83752 4.73899,-13.73315 2.8e-4,-6.27556 -2.15985,-9.64286 -6.1859,-9.64286 -1.44439,0 -2.47817,-0.59098 -2.21832,-1.26815 0.1146,-0.29863 1.19343,-1.24758 2.39742,-2.10878 2.77661,-1.98609 3.9722,-3.24441 4.67011,-4.91517 0.68293,-1.63487 0.68923,-3.03536 0.019,-4.2079 -0.65684,-1.14902 -0.67165,-2.9885 -0.0339,-4.21417 1.73022,-3.32544 6.88105,-4.98541 10.20604,-3.28913 4.90356,2.50161 6.15089,11.55034 2.56046,18.57473 -0.55222,1.08035 -1.53971,2.99612 -2.19443,4.25725 -0.66467,1.2803 -1.26211,3.03926 -1.35277,3.98278 -0.13871,1.44365 -0.0533,1.7482 0.58666,2.09067 3.65954,1.95853 8.26271,-7.07491 9.36676,-18.38169 0.80387,-8.23287 -0.85565,-13.9391 -4.60593,-15.8373 -2.12216,-1.07412 -3.37788,-1.1992 -5.78288,-0.576 -2.71232,0.70283 -3.84549,0.48871 -5.28498,-0.99864 -1.39634,-1.44278 -1.98272,-2.86507 -2.75393,-6.67993 -0.74993,-3.70953 -1.81031,-5.88657 -3.69773,-7.59174 -2.64141,-2.38636 -5.12707,-3.175 -12.01336,-3.81158 -2.35715,-0.21789 -5.08929,-0.47816 -6.07143,-0.57837 -1.57846,-0.16106 -1.07969,0.12171 4.29749,2.4364 3.34576,1.44023 6.82691,3.13029 7.73588,3.75568 3.67874,2.53103 5.36714,5.70041 4.5847,8.60615 -1.12228,4.16786 -8.13726,7.47761 -15.04677,7.09926 -3.32314,-0.18196 -4.90267,-1.04079 -6.3066,-3.42902 -0.95044,-1.61679 -0.97899,-1.82257 -0.97899,-7.05669 0,-4.03311 -0.12295,-5.53953 -0.48803,-5.97958 -0.63417,-0.76439 -2.98608,-1.39051 -4.13759,-1.10149 -1.89285,0.47507 -3.75991,3.62235 -3.76524,6.347 -0.007,3.56093 -4.15667,7.13722 -10.63668,9.16692 -3.2248,1.01008 -5.4594,2.852 -6.39185,5.26862 -0.5279,1.36814 -0.64827,2.67581 -0.63228,6.86844 0.0323,8.4772 1.3029,14.90904 3.42194,17.32249 1.54355,1.758 3.14551,2.10728 7.27877,1.58703 3.04445,-0.38321 3.45795,-0.36158 4.70164,0.24587 1.18199,0.57733 1.37861,0.84842 1.47624,2.03533 0.0619,0.75311 -0.13894,2.10763 -0.44643,3.01005 -1.63299,4.79257 0.35301,10.63022 4.56835,13.4282 4.65542,3.09009 11.17568,4.13311 18.19043,2.90984 z"
       id="path4180"
       inkscape:connector-curvature="0"
       inkscape:export-xdpi="203.27716"
       inkscape:export-ydpi="203.27716" />
    <path
       style="opacity:1;fill:#ffffff;fill-opacity:1;stroke:#000000;stroke-width:1.42857146;stroke-miterlimit:4;stroke-dasharray:none;stroke-opacity:1"
       d="m 485.46628,696.18457 c -1.00169,-0.46642 -2.1861,-1.36042 -2.63203,-1.98667 -1.76036,-2.4722 -2.26923,-6.50902 -1.2522,-9.93371 1.14779,-3.86504 3.79373,-5.55422 8.70684,-5.55846 6.08425,-0.005 8.89612,2.53088 9.23997,8.33385 0.27898,4.70816 -0.96338,7.38791 -4.18075,9.01786 -1.66904,0.84555 -2.36437,0.98165 -4.99963,0.97865 -2.46752,-0.003 -3.41405,-0.1679 -4.8822,-0.85152 z"
       id="path4182"
       inkscape:connector-curvature="0"
       inkscape:export-xdpi="203.27716"
       inkscape:export-ydpi="203.27716" />
    <path
       style="opacity:1;fill:#ffffff;fill-opacity:1;stroke:#000000;stroke-width:1.42857146;stroke-miterlimit:4;stroke-dasharray:none;stroke-opacity:1"
       d="m 508.64977,719.59057 c -3.84911,-1.33006 -6.13541,-3.57018 -7.65386,-7.49927 -1.19717,-3.09773 -1.09682,-8.17247 0.24055,-12.16563 1.28564,-3.8387 2.86798,-6.27895 4.07149,-6.27895 0.7032,0 1.11231,0.42576 2.05906,2.14286 1.99884,3.62525 5.23044,5.87756 8.46628,5.9007 2.80992,0.0201 6.34959,2.87223 8.23374,6.63447 0.88281,1.76278 1.05734,2.54601 1.06659,4.78626 0.009,2.13034 -0.13515,2.87619 -0.70324,3.64414 -2.00376,2.70869 -11.30892,4.38062 -15.78061,2.83542 z"
       id="path4184"
       inkscape:connector-curvature="0"
       inkscape:export-xdpi="203.27716"
       inkscape:export-ydpi="203.27716" />
    <path
       style="opacity:1;fill:#666666;fill-opacity:1;stroke:#333333;stroke-width:1.42857146;stroke-miterlimit:4;stroke-dasharray:none;stroke-opacity:1"
       d="m 602.82074,656.10197 c -1.87286,-1.69201 -7.49068,-9.15051 -12.74399,-16.91953 -10.43825,-15.43697 -22.45082,-26.41863 -37.28057,-34.08118 -12.70423,-6.5643 -20.47898,-8.49982 -34.08008,-8.48421 -15.6264,0.0179 -28.17368,1.77844 -37.58308,5.27326 -5.8251,2.16354 -12.36086,5.76208 -20.98835,11.55604 -9.81498,6.59142 -14.31715,9.30751 -15.42809,9.30751 -1.02209,0 -1.03234,-0.33705 -0.0501,-1.64826 6.38654,-8.52576 22.79776,-18.67718 39.53015,-24.452 15.5998,-5.38394 26.82425,-6.63749 41.12663,-4.59304 17.21538,2.46085 35.0633,10.29056 49.28571,21.62118 7.66638,6.10759 17.31168,16.96098 22.05406,24.81636 2.45623,4.06855 7.45401,14.35638 8.00874,16.48582 0.65033,2.49647 0.0656,2.84964 -1.85101,1.11805 z"
       id="path4186"
       inkscape:connector-curvature="0"
       inkscape:export-xdpi="203.27716"
       inkscape:export-ydpi="203.27716" />
    <path
       style="opacity:1;fill:#8fa93b;fill-opacity:1;stroke:#3f5e12;stroke-width:0.50507629;stroke-miterlimit:4;stroke-dasharray:none;stroke-opacity:1"
       d="m 191.53069,382.00139 c -6.65026,-0.13137 -11.84903,-0.43214 -12.11797,-0.70108 -0.42867,-0.42867 5.95989,-0.96171 15.90604,-1.32714 5.25484,-0.19307 21.23467,-0.19257 26.3271,8.2e-4 8.71556,0.33098 15.13828,0.89977 14.4524,1.27989 -0.59215,0.32816 -5.23624,0.58947 -13.44225,0.75633 -6.8726,0.13976 -23.84752,0.13494 -31.12532,-0.009 z"
       id="path4194"
       inkscape:connector-curvature="0"
       inkscape:export-xdpi="203.27716"
       inkscape:export-ydpi="203.27716" />
    <path
       style="opacity:1;fill:#e6f4ee;fill-opacity:0.53658539;stroke:#3f5e12;stroke-width:1.01015258;stroke-miterlimit:4;stroke-dasharray:none;stroke-opacity:0.30177516"
       d="M 307.44336 376.36133 C 306.99283 376.36133 307.29795 379.03988 307.98438 381.10547 C 308.3903 382.32695 310.00631 385.97768 311.57422 389.21875 C 321.17295 409.06069 341.07766 440.32889 353.62891 455.2793 C 362.02347 465.27848 371.79148 473.535 377.77734 475.69141 C 381.03546 476.86515 383.02991 476.42516 383.90039 474.3418 C 384.23162 473.54906 384.36117 472.57756 384.23047 471.88086 C 383.77309 469.44277 377.09617 459.9789 368.60156 449.72852 C 359.45427 438.69056 350.15749 426.92822 329.59375 400.37891 C 319.17023 386.92138 309.43171 376.36133 307.44336 376.36133 z M 275.23242 389.35938 C 275.12285 389.34807 275.03473 389.35313 274.97266 389.37695 C 274.41972 389.58913 274.5788 390.10606 276.01367 392.76758 C 276.82336 394.26946 277.11725 395.08472 277.06055 395.67188 L 276.98047 396.48828 L 275.33984 396.46094 C 274.15137 396.4411 272.82225 396.14572 270.52734 395.39062 C 266.88568 394.19243 265.81301 393.96467 261.45703 393.4668 C 230.6859 389.94981 122.32406 392.71502 97.677734 397.64648 C 94.294149 398.3235 93.007245 398.97572 92.587891 400.22656 C 92.037797 401.86738 91.521189 406.11705 91.214844 411.51367 C 90.882587 417.36677 91.040753 437.39818 91.476562 444.5957 C 91.623741 447.02638 92.030454 454.1861 92.378906 460.50586 C 93.028314 472.28398 93.740338 483.29503 93.861328 483.41602 C 93.968907 483.5236 121.27011 484.00551 140.23047 484.23438 C 162.90434 484.50804 230.96075 484.36006 239.35352 484.01953 C 253.9478 483.42738 262.1765 482.85623 265.49609 482.20312 C 266.89522 481.92787 267.12568 481.77761 268.70898 480.10742 C 272.80732 475.78421 279.77593 465.28691 283.50391 457.82227 C 287.40679 450.00742 288.97161 443.74182 288.97461 435.91602 C 288.9762 431.6227 288.60023 428.38054 287.54883 423.63477 C 285.97152 416.51517 284.137 411.43958 281.93359 408.09766 C 279.60615 404.56762 279.01858 401.0843 280.29297 398.38086 C 281.19052 396.47687 281.17023 394.78948 280.23242 393.06641 C 279.8454 392.35533 279.18774 391.48666 278.76953 391.13477 C 277.7982 390.31745 275.99946 389.43847 275.23242 389.35938 z M 309.23047 443.375 C 308.80798 443.3055 297.3584 462.3904 295.18359 466.78906 C 291.74087 473.75212 290.06115 479.00493 290.5957 481.13477 C 290.90968 482.38574 292.46154 483.06584 295.92188 483.46875 C 303.63844 484.36723 316.5514 483.27685 323.33008 481.15234 C 326.59069 480.13044 327.6985 479.23401 327.39648 477.86328 C 326.33768 473.05779 322.76026 465.76255 315.21094 453.01758 C 312.0853 447.74079 309.39327 443.4018 309.23047 443.375 z "
       id="path4196"
       inkscape:export-xdpi="203.27716"
       inkscape:export-ydpi="203.27716" />
    <path
       style="opacity:1;fill:#ffffff;fill-opacity:1;stroke:#ffffff;stroke-width:1.01015258;stroke-miterlimit:4;stroke-dasharray:none;stroke-opacity:0.3031359"
       d="M 669.99219 526.69531 C 669.70899 526.72995 669.44123 526.96518 669.05859 527.41992 C 666.63671 530.29816 665.45168 543.29382 666.10547 559.79102 C 666.4116 567.51561 666.83699 571.56989 667.41602 572.26758 C 667.71195 572.62415 667.80698 572.59747 668.3125 572.00977 C 668.62337 571.64836 669.27131 570.1304 669.75195 568.63672 C 671.77207 562.35878 673.35224 553.09289 673.97266 543.88477 C 674.50959 535.91579 673.28083 528.95535 671.02344 527.17969 C 670.5746 526.82663 670.27538 526.66068 669.99219 526.69531 z M 681.22656 563.58398 C 680.51494 563.58842 679.76957 563.68444 679 563.88086 C 676.0916 564.62316 674.5814 566.36683 674.80078 568.72852 C 675.08309 571.76771 678.25644 575.59668 681.4707 576.77734 C 682.76829 577.25394 684.44051 577.23948 685.48438 576.74414 C 686.62694 576.20196 687.44729 575.08322 687.94531 573.38867 C 689.53531 567.97854 686.20792 563.55294 681.22656 563.58398 z M 673.06055 588.01758 C 669.86477 588.01758 666.64426 597.27488 666.20508 607.72461 C 665.96327 613.47822 666.88777 617.94032 668.44922 618.56055 C 669.29724 618.8974 669.93822 618.65246 670.84961 617.64453 C 673.82396 614.3551 676.61137 600.27138 675.74414 592.91797 C 675.31201 589.25387 674.63575 588.01758 673.06055 588.01758 z "
       id="path4183" />
    <path
       style="opacity:1;fill:#ffffff;fill-opacity:1;stroke:#ffffff;stroke-width:2.02030516;stroke-miterlimit:4;stroke-dasharray:none;stroke-opacity:0.30313589"
       d="m 667.34936,709.21394 c -7.17754,-4.24794 -20.20305,-16.13986 -20.20305,-18.44482 0,-1.85542 13.63828,-3.42295 22.07169,-2.53683 5.93351,0.62344 8.03288,1.53126 9.02342,3.90194 1.87534,4.48833 -3.86358,18.44667 -7.57729,18.42964 -0.57306,-0.003 -2.0647,-0.6101 -3.31477,-1.34993 z"
       id="path4191"
       inkscape:connector-curvature="0" />
  </g>
  <g
     inkscape:groupmode="layer"
     id="layer2"
     inkscape:label="Layer 2"
     style="display:inline">
    <path
       style="fill:none;fill-rule:evenodd;stroke:#000000;stroke-width:4.60672617px;stroke-linecap:butt;stroke-linejoin:miter;stroke-opacity:1"
       d="m 579.63249,201.03787 c 73.35778,-0.65461 81.81342,-7.79357 84.6789,0.41415 32.19498,92.21892 37.57057,100.61495 23.65946,100.79581 -107.39706,1.3963 -68.11418,38.35012 -108.33836,-101.2101 z"
       id="path7762"
       inkscape:connector-curvature="0"
       sodipodi:nodetypes="cssc" />
    <path
       style="fill:none;fill-rule:evenodd;stroke:#000000;stroke-width:4.60672617px;stroke-linecap:butt;stroke-linejoin:miter;stroke-opacity:1"
       d="m 611.28198,306.64182 c -73.7733,25.90343 -94.01502,69.10729 -100.38331,22.23496 -16.91457,-124.4959 -63.98329,-42.75839 66.77283,-127.21921"
       id="path7766"
       inkscape:connector-curvature="0"
       sodipodi:nodetypes="csc" />
    <path
       style="fill:none;fill-rule:evenodd;stroke:#000000;stroke-width:4.60672617px;stroke-linecap:butt;stroke-linejoin:miter;stroke-opacity:1"
       d="m 692.26468,302.18509 c -90.53226,41.12134 -84.93789,41.07877 -168.58267,49.3964"
       id="path7768"
       inkscape:connector-curvature="0"
       sodipodi:nodetypes="cc" />
    <path
       style="fill:#ff2a2a"
       d="m 523.37377,347.48275 c -2.23924,0.16492 -4.57982,-1.02398 -5.86063,-2.97701 -1.74816,-2.66572 -3.42754,-9.15384 -4.87129,-18.8199 -2.77251,-18.5617 -5.17317,-29.4795 -9.48958,-43.15724 -3.13419,-9.93136 -5.11959,-15.00378 -9.06157,-23.14977 -1.32471,-2.73791 -2.63173,-5.68322 -2.90417,-6.54523 -0.44455,-1.40644 -0.37867,-1.66598 0.64278,-2.52956 0.62591,-0.52926 5.37863,-2.80264 10.56147,-5.05205 23.1265,-10.03691 38.70728,-18.30667 64.45026,-34.20799 5.8558,-3.61711 10.80683,-6.62705 11.0022,-6.68873 1.00164,-0.31649 10.46629,36.45505 17.19861,66.81867 3.42643,15.45373 7.55406,29.10161 9.70517,32.08926 0.76545,1.06291 1.53063,2.09247 1.70066,2.28765 0.20178,0.23172 -2.02027,1.27533 -6.39782,3.00492 -16.12818,6.37221 -30.30948,13.66692 -52.33359,26.91992 -15.40112,9.26758 -20.36021,11.7137 -24.34231,12.00701 z"
       id="path7770"
       inkscape:connector-curvature="0" />
    <path
       style="fill:#ff2a2a"
       d="m 683.2285,300.18752 c -14.64575,0.28101 -27.60807,1.27095 -45.70029,3.49019 -13.73067,1.68422 -17.74889,1.97937 -21.2898,1.56389 -8.35836,-0.98068 -9.90189,-4.37192 -17.76663,-39.03394 -5.04187,-22.22077 -8.60582,-36.52954 -13.9275,-55.91686 -1.71619,-6.2528 -1.86172,-7.07869 -1.24948,-7.08611 17.76721,-0.21652 37.81918,-1.14859 65.51689,-3.04555 8.42971,-0.57732 11.84431,-0.36762 12.72267,0.78079 1.01929,1.33268 20.28909,56.59944 25.68651,73.67003 5.58805,17.67329 6.35968,21.02501 5.41604,23.52849 -0.62772,1.66556 -1.71048,1.90138 -9.40841,2.04907 z"
       id="path7772"
       inkscape:connector-curvature="0" />
    <path
       style="fill:#ff2a2a"
       d="m 592.00177,340.47619 c -5.88886,1.28266 -15.30639,2.87156 -23.34323,3.93848 -9.67662,1.28458 -32.3348,3.75462 -33.06824,3.60485 -0.34228,-0.07 0.47712,-0.69252 1.91331,-1.453 1.38202,-0.73201 7.58516,-4.37294 13.78467,-8.09135 22.15927,-13.291 35.57653,-20.0891 53.25655,-26.98344 l 6.64884,-2.59266 2.60391,0.47675 c 3.68252,0.67424 8.69358,0.51217 17.80053,-0.5758 18.06412,-2.15802 25.54287,-2.89261 35.95006,-3.5311 6.03417,-0.37038 11.57901,-0.62352 12.32189,-0.56294 1.20488,0.0981 -0.0723,0.75877 -11.83731,6.1222 -36.25033,16.5258 -42.43329,19.09986 -58.50722,24.35733 -7.41826,2.42659 -15.30387,4.80767 -17.52371,5.29082 z"
       id="path7774"
       inkscape:connector-curvature="0" />
  </g>
</svg>
